<?xml version="1.0" encoding="utf-8"?>
<!-- Generator: Adobe Illustrator 16.0.4, SVG Export Plug-In . SVG Version: 6.00 Build 0)  -->
<!DOCTYPE svg PUBLIC "-//W3C//DTD SVG 1.1//EN" "http://www.w3.org/Graphics/SVG/1.1/DTD/svg11.dtd">
<svg version="1.1" id="Layer_1" xmlns="http://www.w3.org/2000/svg" xmlns:xlink="http://www.w3.org/1999/xlink" x="0px" y="0px"
	 width="310px" height="60px" viewBox="-16 0 310 60" enable-background="new -16 0 310 60" xml:space="preserve">
<rect fill="none" width="278" height="60"/>
<path d="M17.313,13.456c1.29,0,2.369-0.096,3.229-0.292c0.862-0.196,1.543-0.473,2.044-0.828c0.506-0.353,0.863-0.77,1.081-1.248
	c0.216-0.48,0.322-1.003,0.322-1.574c0-0.567-0.106-1.088-0.322-1.569c-0.218-0.479-0.575-0.896-1.081-1.25
	c-0.501-0.356-1.182-0.632-2.044-0.824c-0.86-0.194-1.939-0.295-3.229-0.295H8v7.88H17.313L17.313,13.456z M18.714,1
	C20.438,1,22,1.148,23.397,1.451c1.4,0.301,2.602,0.779,3.609,1.438c1.001,0.655,1.773,1.508,2.312,2.553
	c0.54,1.048,0.807,2.335,0.807,3.86c0,2.343-0.696,4.133-2.095,5.375c-1.399,1.246-3.285,2.079-5.654,2.502l7.16,10.115
	c0.251,0.356,0.543,0.57,0.889,0.637c0.338,0.074,0.653,0.11,0.939,0.11V29h-10.07v-0.958c0.325,0,0.604-0.056,0.837-0.161
	s0.35-0.248,0.35-0.426c0-0.178-0.071-0.379-0.215-0.613c-0.143-0.229-0.359-0.54-0.646-0.931l-5.922-8.303H8v9.475
	c0,0.318,0.115,0.558,0.35,0.718c0.233,0.16,0.653,0.24,1.266,0.24V29H0.301v-0.958c1.04,0,1.699-0.321,1.699-0.958V2.916
	c0-0.637-0.659-0.957-1.699-0.957V1H18.714"/>
<path d="M46,28.042c0.94,0,1.412-0.321,1.412-0.958V2.917c0-0.638-0.472-0.958-1.412-0.958V1h9v0.959
	c-0.942,0-1.411,0.32-1.411,0.958v24.167c0,0.637,0.469,0.958,1.411,0.958V29h-9V28.042"/>
<path d="M83.644,6.117c-1.366,0.429-2.595,1.041-3.692,1.846c-1.092,0.801-1.98,1.79-2.664,2.966
	c-0.682,1.177-1.022,2.515-1.022,4.012c0,1.498,0.341,2.833,1.022,4.009c0.684,1.178,1.572,2.169,2.664,2.971
	c1.098,0.802,2.326,1.416,3.692,1.845c1.358,0.426,2.723,0.639,4.092,0.639c1.359,0,2.726-0.213,4.089-0.639
	c1.363-0.429,2.594-1.043,3.688-1.845c1.095-0.801,1.981-1.792,2.666-2.971c0.68-1.176,1.021-2.512,1.021-4.009
	s-0.342-2.834-1.021-4.012c-0.685-1.176-1.571-2.165-2.666-2.966c-1.095-0.805-2.325-1.417-3.688-1.846
	c-1.363-0.43-2.729-0.642-4.089-0.642C86.367,5.475,85.002,5.687,83.644,6.117 M93.761,1.436c2.048,0.589,3.914,1.468,5.601,2.647
	c1.688,1.177,3.068,2.666,4.147,4.466c1.08,1.803,1.613,3.932,1.613,6.391c0,2.458-0.533,4.591-1.613,6.389
	c-1.079,1.804-2.46,3.291-4.147,4.465c-1.687,1.177-3.553,2.033-5.601,2.567c-2.043,0.535-4.055,0.801-6.025,0.801
	c-1.977,0-3.987-0.267-6.032-0.801c-2.044-0.534-3.912-1.39-5.6-2.567c-1.688-1.175-3.068-2.662-4.146-4.465
	c-1.075-1.798-1.617-3.932-1.617-6.389c0-2.458,0.542-4.588,1.617-6.391c1.077-1.8,2.457-3.289,4.146-4.466
	c1.688-1.18,3.556-2.059,5.6-2.647c2.045-0.586,4.056-0.883,6.032-0.883C89.707,0.553,91.718,0.85,93.761,1.436"/>
<path d="M186.83,25.061c-0.107,0-0.205-0.009-0.293-0.029c-0.09-0.016-0.191-0.024-0.297-0.024c-0.217,0-0.73,0.215-1.533,0.642
	c-0.812,0.428-1.834,0.908-3.07,1.445c-1.238,0.53-2.65,0.998-4.227,1.389c-1.58,0.393-3.232,0.587-4.955,0.587
	c-2.26,0-4.434-0.284-6.512-0.854c-2.082-0.571-3.924-1.454-5.521-2.649c-1.598-1.194-2.861-2.681-3.795-4.464
	c-0.934-1.782-1.398-3.868-1.398-6.254c0-2.354,0.465-4.429,1.398-6.231c0.934-1.8,2.197-3.308,3.795-4.518
	c1.598-1.211,3.439-2.122,5.521-2.729c2.078-0.605,4.252-0.911,6.512-0.911c1.828,0,3.488,0.145,4.98,0.431
	c1.487,0.284,2.793,0.587,3.899,0.909c1.115,0.319,1.996,0.621,2.642,0.906c0.646,0.287,1.041,0.43,1.186,0.43
	c0.178,0,0.332-0.089,0.455-0.268c0.127-0.177,0.225-0.32,0.297-0.43l0.809,0.644l-4.195,6.469l-0.543-0.374
	c0-0.107-0.008-0.214-0.022-0.322c-0.021-0.106-0.049-0.231-0.084-0.373c-0.069-0.39-0.428-0.791-1.073-1.205
	c-0.648-0.407-1.449-0.774-2.4-1.093c-0.947-0.322-1.957-0.59-3.012-0.803c-1.062-0.216-2.037-0.323-2.937-0.323
	c-1.508,0-2.949,0.212-4.334,0.642c-1.386,0.427-2.586,1.053-3.606,1.872c-1.021,0.819-1.841,1.826-2.449,3.024
	c-0.609,1.191-0.914,2.558-0.914,4.086c0,1.535,0.305,2.897,0.914,4.092c0.608,1.195,1.428,2.203,2.449,3.023
	c1.021,0.816,2.223,1.441,3.606,1.872c1.385,0.426,2.826,0.642,4.334,0.642c1.149,0,2.353-0.138,3.606-0.403
	c1.258-0.268,2.406-0.607,3.447-1.014c1.041-0.411,1.912-0.873,2.611-1.392c0.701-0.517,1.045-1.008,1.045-1.468
	c0-0.25-0.07-0.465-0.211-0.644l0.752-0.427l3.555,5.667L186.83,25.061"/>
<path d="M218.541,18.14l-4.521-9.898l-5.061,9.898H218.541L218.541,18.14z M198.246,28.042c0.463-0.073,0.83-0.301,1.104-0.694
	c0.271-0.389,0.525-0.83,0.777-1.33l9.959-20.707c0.254-0.459,0.479-0.887,0.672-1.273c0.199-0.393,0.301-0.727,0.301-1.015
	c0-0.354-0.127-0.602-0.379-0.742c-0.25-0.146-0.52-0.25-0.807-0.319V1h9.1v0.961c-0.254,0.069-0.502,0.17-0.754,0.291
	c-0.25,0.127-0.377,0.382-0.377,0.771c0,0.288,0.061,0.571,0.188,0.853c0.125,0.283,0.314,0.657,0.566,1.118l11.195,21.662
	c0.184,0.391,0.424,0.676,0.732,0.853c0.301,0.177,0.651,0.354,1.047,0.533v0.956h-9.479v-0.956c0.146,0,0.326-0.055,0.541-0.163
	c0.22-0.108,0.324-0.264,0.324-0.478c0-0.354-0.146-0.815-0.433-1.384l-2.047-3.938H207.34l-1.936,3.779
	c-0.363,0.747-0.539,1.276-0.539,1.596c0,0.391,0.338,0.588,1.023,0.588v0.956h-7.646v-0.956"/>
<polyline fill="#ED3425" points="129.36,28.538 128.512,28.538 128.705,21.764 121.951,22.885 123.114,20.359 116.974,14.822 
	118.425,14.271 117,9.801 119.812,10.578 121.188,8.411 125.414,12.377 124.722,4.565 126.655,5.528 129.354,0 132.054,5.528 
	133.987,4.565 133.295,12.377 137,8.411 138.377,10.578 142.029,9.557 141.008,14.271 142.424,14.718 135.594,20.359 136.81,22.885 
	130.05,21.764 130.244,28.538 129.36,28.538 "/>
<path d="M4.664,50.113c2.055,0,3.361-0.652,3.361-2.471c0-1.817-1.307-2.473-3.361-2.473H2.292v4.941h2.372V50.113z M11.187,57.43
	H9.014l-2.63-4.15c-0.812-1.266-1.366-1.581-3.164-1.581H2.292v5.731h-1.88V43.59h4.649c2.629,0,4.94,1.244,4.94,4.053
	c0,2.019-1.403,3.146-3.181,3.599c0.532,0.336,0.948,0.812,1.362,1.444L11.187,57.43"/>
<polyline points="22.458,55.85 22.458,57.43 13.167,57.43 13.167,43.59 22.26,43.59 22.26,45.171 15.043,45.171 15.043,49.422 
	21.667,49.422 21.667,51.004 15.043,51.004 15.043,55.85 22.458,55.85 "/>
<path d="M32.464,52.092l-2.352-6.15l-2.295,6.15H32.464L32.464,52.092z M33.057,53.672h-5.832l-1.404,3.758h-1.978l5.281-13.84H31.2
	l5.379,13.84H34.5L33.057,53.672"/>
<polyline points="47.65,55.85 47.65,57.43 38.554,57.43 38.554,43.59 40.432,43.59 40.432,55.85 47.65,55.85 "/>
<polyline points="64.852,43.59 59.965,57.43 57.892,57.43 52.888,43.59 54.965,43.59 58.977,55.057 62.873,43.59 64.852,43.59 "/>
<rect x="66.926" y="43.59" width="1.879" height="13.84"/>
<path d="M81.754,53.654c0,2.59-2.034,3.973-5.002,3.973c-2.687,0-4.785-1.127-5.082-3.955h1.879
	c0.277,1.822,1.602,2.375,3.145,2.375c1.779,0,2.985-0.753,2.985-2.137c0-3.499-7.611-1.682-7.611-6.585
	c0-2.608,2.174-3.935,4.728-3.935c2.626,0,4.467,1.403,4.763,3.758H79.68c-0.296-1.306-1.206-2.176-2.847-2.176
	c-1.682,0-2.787,0.909-2.787,2.176C74.045,50.471,81.754,48.631,81.754,53.654"/>
<rect x="84.622" y="43.59" width="1.881" height="13.84"/>
<path d="M100.046,50.508c0-3.439-1.8-5.535-4.35-5.535c-2.554,0-4.351,2.096-4.351,5.535c0,3.441,1.797,5.537,4.351,5.537
	C98.247,56.045,100.046,53.949,100.046,50.508L100.046,50.508z M102.123,50.508c0,4.35-2.593,7.117-6.426,7.117
	c-3.837,0-6.428-2.768-6.428-7.117c0-4.349,2.591-7.115,6.428-7.115C99.53,43.393,102.123,46.159,102.123,50.508"/>
<polyline points="116.654,43.59 116.654,57.43 115.171,57.43 106.667,47.109 106.667,57.43 104.791,57.43 104.791,43.59 
	106.275,43.59 114.776,53.91 114.776,43.59 116.654,43.59 "/>
<polyline points="119.721,55.452 121.697,55.452 120.314,60 118.93,60 119.721,55.452 "/>
<path d="M138.403,53.654c0,2.59-2.035,3.973-5.003,3.973c-2.688,0-4.785-1.127-5.079-3.955h1.878
	c0.276,1.822,1.603,2.375,3.144,2.375c1.78,0,2.984-0.753,2.984-2.137c0-3.499-7.611-1.682-7.611-6.585
	c0-2.608,2.174-3.935,4.727-3.935c2.629,0,4.467,1.403,4.764,3.758h-1.879c-0.296-1.306-1.204-2.176-2.845-2.176
	c-1.681,0-2.79,0.909-2.79,2.176C130.692,50.471,138.403,48.631,138.403,53.654"/>
<path d="M151.256,50.508c0-3.439-1.801-5.535-4.352-5.535c-2.549,0-4.35,2.096-4.35,5.535c0,3.441,1.801,5.537,4.35,5.537
	C149.455,56.045,151.256,53.949,151.256,50.508L151.256,50.508z M153.334,50.508c0,4.35-2.592,7.117-6.43,7.117
	c-3.834,0-6.426-2.768-6.426-7.117c0-4.349,2.592-7.115,6.426-7.115C150.742,43.393,153.334,46.159,153.334,50.508"/>
<polyline points="165.096,55.85 165.096,57.43 156.002,57.43 156.002,43.59 157.879,43.59 157.879,55.85 165.096,55.85 "/>
<rect x="167.271" y="43.59" width="1.879" height="13.84"/>
<path d="M182,50.508c0-3.439-1.996-5.337-4.744-5.337h-2.668v10.677h2.668C180.004,55.848,182,53.949,182,50.508L182,50.508z
	 M184.078,50.508c0,4.35-2.787,6.922-6.623,6.922h-4.746V43.59h4.746C181.291,43.59,184.078,46.159,184.078,50.508"/>
<path d="M202.564,50.312v7.115h-1.484l-0.117-1.641c-0.83,1.268-2.254,1.837-3.916,1.837c-3.678,0-6.244-2.769-6.244-7.117
	s2.59-7.116,6.424-7.116c2.826,0,4.824,1.483,5.438,4.35h-1.881c-0.591-1.977-1.955-2.768-3.558-2.768
	c-2.553,0-4.35,2.096-4.35,5.534c0,3.441,1.779,5.537,4.369,5.537c1.957,0,3.656-1.188,3.637-4.351h-3.062v-1.383h4.744"/>
<path d="M210.375,50.113c2.055,0,3.361-0.652,3.361-2.471c0-1.817-1.307-2.473-3.361-2.473H208v4.941h2.375V50.113z M216.898,57.43
	h-2.174l-2.632-4.15c-0.811-1.266-1.362-1.581-3.161-1.581H208v5.731h-1.875V43.59h4.645c2.629,0,4.943,1.244,4.943,4.053
	c0,2.019-1.402,3.146-3.184,3.599c0.533,0.336,0.949,0.812,1.363,1.444L216.898,57.43"/>
<path d="M228.465,50.508c0-3.439-1.801-5.535-4.346-5.535c-2.553,0-4.354,2.096-4.354,5.535c0,3.441,1.801,5.537,4.354,5.537
	C226.664,56.045,228.465,53.949,228.465,50.508L228.465,50.508z M230.543,50.508c0,4.35-2.59,7.117-6.424,7.117
	c-3.838,0-6.428-2.768-6.428-7.117c0-4.349,2.59-7.115,6.428-7.115C227.953,43.393,230.543,46.159,230.543,50.508"/>
<path d="M244.283,43.59v8.502c0,3.124-1.977,5.535-5.535,5.535c-3.557,0-5.535-2.411-5.535-5.535V43.59h1.879v8.303
	c0,2.354,1.186,4.154,3.656,4.154c2.47,0,3.658-1.801,3.658-4.154V43.59H244.283"/>
<polyline points="259.508,43.59 259.508,57.43 258.025,57.43 249.525,47.109 249.525,57.43 247.646,57.43 247.646,43.59 
	249.129,43.59 257.629,53.91 257.629,43.59 259.508,43.59 "/>
<path d="M272.264,50.508c0-3.439-1.998-5.337-4.746-5.337h-2.67v10.677h2.67C270.266,55.848,272.264,53.949,272.264,50.508
	L272.264,50.508z M274.338,50.508c0,4.35-2.787,6.922-6.625,6.922h-4.744V43.59h4.744C271.551,43.59,274.338,46.159,274.338,50.508"
	/>
<path d="M275.326,56.439c0-0.631,0.555-1.185,1.189-1.185c0.651,0,1.184,0.554,1.184,1.185c0,0.653-0.531,1.188-1.184,1.188
	C275.881,57.627,275.326,57.094,275.326,56.439"/>
<g>
	<path d="M244.003,28.045c0.68,0,1.015-0.323,1.015-0.961V2.951c0-0.631-0.335-0.954-1.015-0.954V1.039h9.153v0.958
		c-0.288,0-0.431,0.175-0.431,0.53c0,0.285,0.359,0.78,1.069,1.487l15.362,15.844V2.951c0-0.631-0.466-0.954-1.395-0.954V1.039h8.08
		v0.958c-0.673,0-1.013,0.323-1.013,0.954v24.132c0,0.639,0.34,0.961,1.013,0.961V29h-8.666v-0.956c0.46,0,0.697-0.163,0.697-0.48
		c0-0.246-0.286-0.654-0.858-1.22l-16.32-16.908v17.647c0,0.639,0.402,0.961,1.225,0.961V29H244L244.003,28.045"/>
	<path d="M286.53,1.65h-1.905v5.032h-0.772V1.65h-1.907V1h2.68h1.905V1.65z"/>
	<path d="M293.31,1v5.683h-0.77V2.825l-1.948,3.32h-0.325l-1.946-3.32v3.857h-0.771V1h0.65l2.23,3.929L292.663,1H293.31z"/>
</g>
</svg>
